<?xml version="1.0" encoding="UTF-8" standalone="no"?>
<!DOCTYPE svg PUBLIC "-//W3C//DTD SVG 1.1//EN"
 "http://www.w3.org/Graphics/SVG/1.1/DTD/svg11.dtd">
<!-- Generated by graphviz version 2.49.0 (20210829.0051)
 -->
<!-- Title: snakemake_dag Pages: 1 -->
<svg width="2606pt" height="620pt"
 viewBox="0.00 0.00 2605.50 620.00" xmlns="http://www.w3.org/2000/svg" xmlns:xlink="http://www.w3.org/1999/xlink">
<g id="graph0" class="graph" transform="scale(1 1) rotate(0) translate(4 616)">
<title>snakemake_dag</title>
<polygon fill="white" stroke="transparent" points="-4,4 -4,-616 2601.5,-616 2601.5,4 -4,4"/>
<!-- 0 -->
<g id="node1" class="node">
<title>0</title>
<path fill="none" stroke="#59d856" stroke-width="2" d="M1392,-36C1392,-36 1321,-36 1321,-36 1315,-36 1309,-30 1309,-24 1309,-24 1309,-12 1309,-12 1309,-6 1315,0 1321,0 1321,0 1392,0 1392,0 1398,0 1404,-6 1404,-12 1404,-12 1404,-24 1404,-24 1404,-30 1398,-36 1392,-36"/>
<text text-anchor="middle" x="1356.5" y="-15.5" font-family="sans" font-size="10.00">make_summary</text>
</g>
<!-- 1 -->
<g id="node2" class="node">
<title>1</title>
<path fill="none" stroke="#b6d856" stroke-width="2" d="M55,-108C55,-108 12,-108 12,-108 6,-108 0,-102 0,-96 0,-96 0,-84 0,-84 0,-78 6,-72 12,-72 12,-72 55,-72 55,-72 61,-72 67,-78 67,-84 67,-84 67,-96 67,-96 67,-102 61,-108 55,-108"/>
<text text-anchor="middle" x="33.5" y="-87.5" font-family="sans" font-size="10.00">make_dag</text>
</g>
<!-- 1&#45;&gt;0 -->
<g id="edge1" class="edge">
<title>1&#45;&gt;0</title>
<path fill="none" stroke="grey" stroke-width="2" d="M67.24,-75.64C71.97,-74.19 76.81,-72.91 81.5,-72 319.46,-26 1081.98,-19.91 1298.61,-19.12"/>
<polygon fill="grey" stroke="grey" stroke-width="2" points="1298.82,-22.62 1308.81,-19.08 1298.79,-15.62 1298.82,-22.62"/>
</g>
<!-- 2 -->
<g id="node3" class="node">
<title>2</title>
<path fill="none" stroke="#9fd856" stroke-width="2" d="M915,-468C915,-468 784,-468 784,-468 778,-468 772,-462 772,-456 772,-456 772,-444 772,-444 772,-438 778,-432 784,-432 784,-432 915,-432 915,-432 921,-432 927,-438 927,-444 927,-444 927,-456 927,-456 927,-462 921,-468 915,-468"/>
<text text-anchor="middle" x="849.5" y="-447.5" font-family="sans" font-size="10.00">get_WH1_bc_variant_lookup</text>
</g>
<!-- 2&#45;&gt;0 -->
<g id="edge2" class="edge">
<title>2&#45;&gt;0</title>
<path fill="none" stroke="grey" stroke-width="2" d="M771.88,-447.7C626.11,-444.41 317.12,-433.15 217.5,-396 154.61,-372.55 95.5,-374.12 95.5,-307 95.5,-307 95.5,-307 95.5,-161 95.5,-102.49 138.47,-94.46 192.5,-72 295.07,-29.36 1078.46,-20.87 1298.93,-19.32"/>
<polygon fill="grey" stroke="grey" stroke-width="2" points="1299.02,-22.82 1309,-19.25 1298.97,-15.82 1299.02,-22.82"/>
</g>
<!-- 22 -->
<g id="node23" class="node">
<title>22</title>
<path fill="none" stroke="#d6d856" stroke-width="2" d="M1379,-396C1379,-396 1314,-396 1314,-396 1308,-396 1302,-390 1302,-384 1302,-384 1302,-372 1302,-372 1302,-366 1308,-360 1314,-360 1314,-360 1379,-360 1379,-360 1385,-360 1391,-366 1391,-372 1391,-372 1391,-384 1391,-384 1391,-390 1385,-396 1379,-396"/>
<text text-anchor="middle" x="1346.5" y="-375.5" font-family="sans" font-size="10.00">count_variants</text>
</g>
<!-- 2&#45;&gt;22 -->
<g id="edge47" class="edge">
<title>2&#45;&gt;22</title>
<path fill="none" stroke="grey" stroke-width="2" d="M927.25,-437.75C940.67,-435.82 954.49,-433.85 967.5,-432 1082.94,-415.61 1218.22,-396.79 1291.88,-386.57"/>
<polygon fill="grey" stroke="grey" stroke-width="2" points="1292.43,-390.02 1301.86,-385.18 1291.47,-383.09 1292.43,-390.02"/>
</g>
<!-- 23 -->
<g id="node24" class="node">
<title>23</title>
<path fill="none" stroke="#566bd8" stroke-width="2" d="M1870,-324C1870,-324 1775,-324 1775,-324 1769,-324 1763,-318 1763,-312 1763,-312 1763,-300 1763,-300 1763,-294 1769,-288 1775,-288 1775,-288 1870,-288 1870,-288 1876,-288 1882,-294 1882,-300 1882,-300 1882,-312 1882,-312 1882,-318 1876,-324 1870,-324"/>
<text text-anchor="middle" x="1822.5" y="-303.5" font-family="sans" font-size="10.00">fit_titrations_huACE2</text>
</g>
<!-- 2&#45;&gt;23 -->
<g id="edge54" class="edge">
<title>2&#45;&gt;23</title>
<path fill="none" stroke="grey" stroke-width="2" d="M927.16,-437.04C940.59,-435.19 954.43,-433.43 967.5,-432 1181.05,-408.67 1237.2,-428.78 1449.5,-396 1557.33,-379.35 1679.97,-347.54 1754.27,-326.81"/>
<polygon fill="grey" stroke="grey" stroke-width="2" points="1755.29,-330.16 1763.97,-324.08 1753.4,-323.42 1755.29,-330.16"/>
</g>
<!-- 24 -->
<g id="node25" class="node">
<title>24</title>
<path fill="none" stroke="#68d856" stroke-width="2" d="M899,-324C899,-324 798,-324 798,-324 792,-324 786,-318 786,-312 786,-312 786,-300 786,-300 786,-294 792,-288 798,-288 798,-288 899,-288 899,-288 905,-288 911,-294 911,-300 911,-300 911,-312 911,-312 911,-318 905,-324 899,-324"/>
<text text-anchor="middle" x="848.5" y="-303.5" font-family="sans" font-size="10.00">fit_titrations_RshACE2</text>
</g>
<!-- 2&#45;&gt;24 -->
<g id="edge62" class="edge">
<title>2&#45;&gt;24</title>
<path fill="none" stroke="grey" stroke-width="2" d="M771.86,-444.74C699.77,-438.96 600.01,-425.71 575.5,-396 477.9,-277.72 499.57,-378.91 775.78,-324.05"/>
<polygon fill="grey" stroke="grey" stroke-width="2" points="776.61,-327.46 785.72,-322.04 775.22,-320.6 776.61,-327.46"/>
</g>
<!-- 25 -->
<g id="node26" class="node">
<title>25</title>
<path fill="none" stroke="#56d87b" stroke-width="2" d="M1541,-324C1541,-324 1428,-324 1428,-324 1422,-324 1416,-318 1416,-312 1416,-312 1416,-300 1416,-300 1416,-294 1422,-288 1428,-288 1428,-288 1541,-288 1541,-288 1547,-288 1553,-294 1553,-300 1553,-300 1553,-312 1553,-312 1553,-318 1547,-324 1541,-324"/>
<text text-anchor="middle" x="1484.5" y="-303.5" font-family="sans" font-size="10.00">fit_titrations_Ra787ACE2</text>
</g>
<!-- 2&#45;&gt;25 -->
<g id="edge70" class="edge">
<title>2&#45;&gt;25</title>
<path fill="none" stroke="grey" stroke-width="2" d="M909.02,-431.99C944.61,-421.74 990.7,-408.32 1031.5,-396 1082.77,-380.51 1094.24,-371.7 1146.5,-360 1257.65,-335.12 1290.45,-344.11 1405.78,-324.22"/>
<polygon fill="grey" stroke="grey" stroke-width="2" points="1406.47,-327.66 1415.71,-322.47 1405.25,-320.76 1406.47,-327.66"/>
</g>
<!-- 26 -->
<g id="node27" class="node">
<title>26</title>
<path fill="none" stroke="#56d8a2" stroke-width="2" d="M1386,-324C1386,-324 1267,-324 1267,-324 1261,-324 1255,-318 1255,-312 1255,-312 1255,-300 1255,-300 1255,-294 1261,-288 1267,-288 1267,-288 1386,-288 1386,-288 1392,-288 1398,-294 1398,-300 1398,-300 1398,-312 1398,-312 1398,-318 1392,-324 1386,-324"/>
<text text-anchor="middle" x="1326.5" y="-303.5" font-family="sans" font-size="10.00">fit_titrations_Ra9479ACE2</text>
</g>
<!-- 2&#45;&gt;26 -->
<g id="edge78" class="edge">
<title>2&#45;&gt;26</title>
<path fill="none" stroke="grey" stroke-width="2" d="M885.21,-431.88C927.6,-412.14 1000.83,-379.87 1066.5,-360 1141.14,-337.41 1164.22,-340.08 1244.83,-324.09"/>
<polygon fill="grey" stroke="grey" stroke-width="2" points="1245.84,-327.46 1254.95,-322.05 1244.46,-320.6 1245.84,-327.46"/>
</g>
<!-- 27 -->
<g id="node28" class="node">
<title>27</title>
<path fill="none" stroke="#d8c356" stroke-width="2" d="M527.5,-324C527.5,-324 423.5,-324 423.5,-324 417.5,-324 411.5,-318 411.5,-312 411.5,-312 411.5,-300 411.5,-300 411.5,-294 417.5,-288 423.5,-288 423.5,-288 527.5,-288 527.5,-288 533.5,-288 539.5,-294 539.5,-300 539.5,-300 539.5,-312 539.5,-312 539.5,-318 533.5,-324 527.5,-324"/>
<text text-anchor="middle" x="475.5" y="-303.5" font-family="sans" font-size="10.00">fit_titrations_RlanACE2</text>
</g>
<!-- 2&#45;&gt;27 -->
<g id="edge86" class="edge">
<title>2&#45;&gt;27</title>
<path fill="none" stroke="grey" stroke-width="2" d="M771.82,-448.05C614.32,-445.33 269.22,-434.93 233.5,-396 180.75,-338.52 311.99,-318.05 401.14,-310.84"/>
<polygon fill="grey" stroke="grey" stroke-width="2" points="401.55,-314.32 411.25,-310.07 401.01,-307.34 401.55,-314.32"/>
</g>
<!-- 28 -->
<g id="node29" class="node">
<title>28</title>
<path fill="none" stroke="#568ad8" stroke-width="2" d="M755.5,-324C755.5,-324 651.5,-324 651.5,-324 645.5,-324 639.5,-318 639.5,-312 639.5,-312 639.5,-300 639.5,-300 639.5,-294 645.5,-288 651.5,-288 651.5,-288 755.5,-288 755.5,-288 761.5,-288 767.5,-294 767.5,-300 767.5,-300 767.5,-312 767.5,-312 767.5,-318 761.5,-324 755.5,-324"/>
<text text-anchor="middle" x="703.5" y="-303.5" font-family="sans" font-size="10.00">fit_titrations_RalcACE2</text>
</g>
<!-- 2&#45;&gt;28 -->
<g id="edge94" class="edge">
<title>2&#45;&gt;28</title>
<path fill="none" stroke="grey" stroke-width="2" d="M771.93,-447.03C629.94,-442.63 339.95,-429.59 309.5,-396 298.75,-384.15 298.97,-372.04 309.5,-360 314.73,-354.02 516.4,-329.21 629.12,-315.76"/>
<polygon fill="grey" stroke="grey" stroke-width="2" points="629.56,-319.23 639.08,-314.57 628.74,-312.28 629.56,-319.23"/>
</g>
<!-- 29 -->
<g id="node30" class="node">
<title>29</title>
<path fill="none" stroke="#d87d56" stroke-width="2" d="M1733,-324C1733,-324 1622,-324 1622,-324 1616,-324 1610,-318 1610,-312 1610,-312 1610,-300 1610,-300 1610,-294 1616,-288 1622,-288 1622,-288 1733,-288 1733,-288 1739,-288 1745,-294 1745,-300 1745,-300 1745,-312 1745,-312 1745,-318 1739,-324 1733,-324"/>
<text text-anchor="middle" x="1677.5" y="-303.5" font-family="sans" font-size="10.00">fit_titrations_RpearACE2</text>
</g>
<!-- 2&#45;&gt;29 -->
<g id="edge102" class="edge">
<title>2&#45;&gt;29</title>
<path fill="none" stroke="grey" stroke-width="2" d="M927.17,-437.13C940.6,-435.28 954.44,-433.48 967.5,-432 1159.38,-410.22 1214.71,-448.64 1400.5,-396 1434.54,-386.35 1438.39,-372.48 1471.5,-360 1495.06,-351.12 1551.96,-336.66 1600.01,-325.09"/>
<polygon fill="grey" stroke="grey" stroke-width="2" points="1600.89,-328.48 1609.8,-322.74 1599.26,-321.67 1600.89,-328.48"/>
</g>
<!-- 30 -->
<g id="node31" class="node">
<title>30</title>
<path fill="none" stroke="#c6d856" stroke-width="2" d="M2094,-324C2094,-324 1999,-324 1999,-324 1993,-324 1987,-318 1987,-312 1987,-312 1987,-300 1987,-300 1987,-294 1993,-288 1999,-288 1999,-288 2094,-288 2094,-288 2100,-288 2106,-294 2106,-300 2106,-300 2106,-312 2106,-312 2106,-318 2100,-324 2094,-324"/>
<text text-anchor="middle" x="2046.5" y="-303.5" font-family="sans" font-size="10.00">calculate_expression</text>
</g>
<!-- 2&#45;&gt;30 -->
<g id="edge110" class="edge">
<title>2&#45;&gt;30</title>
<path fill="none" stroke="grey" stroke-width="2" d="M927.14,-436.9C940.58,-435.07 954.43,-433.34 967.5,-432 1225.75,-405.47 1292.75,-426.98 1550.5,-396 1703.81,-377.57 1881.5,-342.25 1977.07,-322.09"/>
<polygon fill="grey" stroke="grey" stroke-width="2" points="1977.84,-325.5 1986.9,-320 1976.39,-318.65 1977.84,-325.5"/>
</g>
<!-- 3 -->
<g id="node4" class="node">
<title>3</title>
<path fill="none" stroke="#8fd856" stroke-width="2" d="M1211,-180C1211,-180 1062,-180 1062,-180 1056,-180 1050,-174 1050,-168 1050,-168 1050,-156 1050,-156 1050,-150 1056,-144 1062,-144 1062,-144 1211,-144 1211,-144 1217,-144 1223,-150 1223,-156 1223,-156 1223,-168 1223,-168 1223,-174 1217,-180 1211,-180"/>
<text text-anchor="middle" x="1136.5" y="-159.5" font-family="sans" font-size="10.00">get_WH1_mut_antibody_escape</text>
</g>
<!-- 3&#45;&gt;0 -->
<g id="edge3" class="edge">
<title>3&#45;&gt;0</title>
<path fill="none" stroke="grey" stroke-width="2" d="M1111.94,-143.81C1088.45,-125.28 1059.22,-95.3 1078.5,-72 1105.91,-38.87 1225.78,-26.27 1298.87,-21.61"/>
<polygon fill="grey" stroke="grey" stroke-width="2" points="1299.09,-25.1 1308.86,-21 1298.67,-18.12 1299.09,-25.1"/>
</g>
<!-- 35 -->
<g id="node36" class="node">
<title>35</title>
<path fill="none" stroke="#56d8b1" stroke-width="2" d="M1165.5,-108C1165.5,-108 1099.5,-108 1099.5,-108 1093.5,-108 1087.5,-102 1087.5,-96 1087.5,-96 1087.5,-84 1087.5,-84 1087.5,-78 1093.5,-72 1099.5,-72 1099.5,-72 1165.5,-72 1165.5,-72 1171.5,-72 1177.5,-78 1177.5,-84 1177.5,-84 1177.5,-96 1177.5,-96 1177.5,-102 1171.5,-108 1165.5,-108"/>
<text text-anchor="middle" x="1132.5" y="-87.5" font-family="sans" font-size="10.00">epistatic_shifts</text>
</g>
<!-- 3&#45;&gt;35 -->
<g id="edge132" class="edge">
<title>3&#45;&gt;35</title>
<path fill="none" stroke="grey" stroke-width="2" d="M1135.51,-143.7C1135.07,-135.98 1134.54,-126.71 1134.05,-118.11"/>
<polygon fill="grey" stroke="grey" stroke-width="2" points="1137.54,-117.89 1133.48,-108.1 1130.55,-118.29 1137.54,-117.89"/>
</g>
<!-- 4 -->
<g id="node5" class="node">
<title>4</title>
<path fill="none" stroke="#56c9d8" stroke-width="2" d="M1546,-540C1546,-540 1495,-540 1495,-540 1489,-540 1483,-534 1483,-528 1483,-528 1483,-516 1483,-516 1483,-510 1489,-504 1495,-504 1495,-504 1546,-504 1546,-504 1552,-504 1558,-510 1558,-516 1558,-516 1558,-528 1558,-528 1558,-534 1552,-540 1546,-540"/>
<text text-anchor="middle" x="1520.5" y="-519.5" font-family="sans" font-size="10.00">process_ccs</text>
</g>
<!-- 4&#45;&gt;0 -->
<g id="edge4" class="edge">
<title>4&#45;&gt;0</title>
<path fill="none" stroke="grey" stroke-width="2" d="M1558.2,-520.08C1748.82,-514.96 2597.5,-486.15 2597.5,-379 2597.5,-379 2597.5,-379 2597.5,-161 2597.5,-96.02 2542.53,-94.33 2481.5,-72 2381.01,-35.23 1629.72,-22.59 1414.16,-19.7"/>
<polygon fill="grey" stroke="grey" stroke-width="2" points="1414.05,-16.2 1404,-19.57 1413.96,-23.2 1414.05,-16.2"/>
</g>
<!-- 16 -->
<g id="node17" class="node">
<title>16</title>
<path fill="none" stroke="#56d88a" stroke-width="2" d="M1407,-468C1407,-468 1286,-468 1286,-468 1280,-468 1274,-462 1274,-456 1274,-456 1274,-444 1274,-444 1274,-438 1280,-432 1286,-432 1286,-432 1407,-432 1407,-432 1413,-432 1419,-438 1419,-444 1419,-444 1419,-456 1419,-456 1419,-462 1413,-468 1407,-468"/>
<text text-anchor="middle" x="1346.5" y="-447.5" font-family="sans" font-size="10.00">build_variants_RshSTT182</text>
</g>
<!-- 4&#45;&gt;16 -->
<g id="edge36" class="edge">
<title>4&#45;&gt;16</title>
<path fill="none" stroke="grey" stroke-width="2" d="M1482.74,-505.81C1457.98,-495.85 1425.27,-482.69 1398.11,-471.76"/>
<polygon fill="grey" stroke="grey" stroke-width="2" points="1399.34,-468.49 1388.76,-468 1396.73,-474.98 1399.34,-468.49"/>
</g>
<!-- 17 -->
<g id="node18" class="node">
<title>17</title>
<path fill="none" stroke="#d85656" stroke-width="2" d="M1886,-468C1886,-468 1775,-468 1775,-468 1769,-468 1763,-462 1763,-456 1763,-456 1763,-444 1763,-444 1763,-438 1769,-432 1775,-432 1775,-432 1886,-432 1886,-432 1892,-432 1898,-438 1898,-444 1898,-444 1898,-456 1898,-456 1898,-462 1892,-468 1886,-468"/>
<text text-anchor="middle" x="1830.5" y="-447.5" font-family="sans" font-size="10.00">build_variants_PRD0038</text>
</g>
<!-- 4&#45;&gt;17 -->
<g id="edge37" class="edge">
<title>4&#45;&gt;17</title>
<path fill="none" stroke="grey" stroke-width="2" d="M1558.2,-512.49C1606.37,-501.61 1690.94,-482.51 1753.09,-468.48"/>
<polygon fill="grey" stroke="grey" stroke-width="2" points="1753.88,-471.89 1762.86,-466.27 1752.33,-465.06 1753.88,-471.89"/>
</g>
<!-- 18 -->
<g id="node19" class="node">
<title>18</title>
<path fill="none" stroke="#56d8d8" stroke-width="2" d="M1733,-468C1733,-468 1634,-468 1634,-468 1628,-468 1622,-462 1622,-456 1622,-456 1622,-444 1622,-444 1622,-438 1628,-432 1634,-432 1634,-432 1733,-432 1733,-432 1739,-432 1745,-438 1745,-444 1745,-444 1745,-456 1745,-456 1745,-462 1739,-468 1733,-468"/>
<text text-anchor="middle" x="1683.5" y="-447.5" font-family="sans" font-size="10.00">build_variants_SARS1</text>
</g>
<!-- 4&#45;&gt;18 -->
<g id="edge38" class="edge">
<title>4&#45;&gt;18</title>
<path fill="none" stroke="grey" stroke-width="2" d="M1558.31,-504.76C1580.97,-495.03 1610.04,-482.55 1634.46,-472.06"/>
<polygon fill="grey" stroke="grey" stroke-width="2" points="1636.1,-475.16 1643.91,-468 1633.34,-468.73 1636.1,-475.16"/>
</g>
<!-- 19 -->
<g id="node20" class="node">
<title>19</title>
<path fill="none" stroke="#d8b456" stroke-width="2" d="M1092.5,-468C1092.5,-468 988.5,-468 988.5,-468 982.5,-468 976.5,-462 976.5,-456 976.5,-456 976.5,-444 976.5,-444 976.5,-438 982.5,-432 988.5,-432 988.5,-432 1092.5,-432 1092.5,-432 1098.5,-432 1104.5,-438 1104.5,-444 1104.5,-444 1104.5,-456 1104.5,-456 1104.5,-462 1098.5,-468 1092.5,-468"/>
<text text-anchor="middle" x="1040.5" y="-447.5" font-family="sans" font-size="10.00">build_variants_RsYN04</text>
</g>
<!-- 4&#45;&gt;19 -->
<g id="edge39" class="edge">
<title>4&#45;&gt;19</title>
<path fill="none" stroke="grey" stroke-width="2" d="M1482.81,-517.3C1410.88,-509.97 1249.18,-492.2 1114.5,-468 1114.4,-467.98 1114.3,-467.96 1114.2,-467.95"/>
<polygon fill="grey" stroke="grey" stroke-width="2" points="1115.08,-464.55 1104.6,-466.12 1113.77,-471.43 1115.08,-464.55"/>
</g>
<!-- 20 -->
<g id="node21" class="node">
<title>20</title>
<path fill="none" stroke="#56d8c9" stroke-width="2" d="M1244,-468C1244,-468 1135,-468 1135,-468 1129,-468 1123,-462 1123,-456 1123,-456 1123,-444 1123,-444 1123,-438 1129,-432 1135,-432 1135,-432 1244,-432 1244,-432 1250,-432 1256,-438 1256,-444 1256,-444 1256,-456 1256,-456 1256,-462 1250,-468 1244,-468"/>
<text text-anchor="middle" x="1189.5" y="-447.5" font-family="sans" font-size="10.00">build_variants_RmYN02</text>
</g>
<!-- 4&#45;&gt;20 -->
<g id="edge40" class="edge">
<title>4&#45;&gt;20</title>
<path fill="none" stroke="grey" stroke-width="2" d="M1482.87,-513.36C1434.99,-503.61 1349.46,-486.04 1266.1,-468.11"/>
<polygon fill="grey" stroke="grey" stroke-width="2" points="1266.73,-464.67 1256.22,-465.98 1265.25,-471.51 1266.73,-464.67"/>
</g>
<!-- 21 -->
<g id="node22" class="node">
<title>21</title>
<path fill="none" stroke="#56b1d8" stroke-width="2" d="M1592,-468C1592,-468 1449,-468 1449,-468 1443,-468 1437,-462 1437,-456 1437,-456 1437,-444 1437,-444 1437,-438 1443,-432 1449,-432 1449,-432 1592,-432 1592,-432 1598,-432 1604,-438 1604,-444 1604,-444 1604,-456 1604,-456 1604,-462 1598,-468 1592,-468"/>
<text text-anchor="middle" x="1520.5" y="-447.5" font-family="sans" font-size="10.00">build_variants_lib46_wildtypes</text>
</g>
<!-- 4&#45;&gt;21 -->
<g id="edge41" class="edge">
<title>4&#45;&gt;21</title>
<path fill="none" stroke="grey" stroke-width="2" d="M1520.5,-503.7C1520.5,-495.98 1520.5,-486.71 1520.5,-478.11"/>
<polygon fill="grey" stroke="grey" stroke-width="2" points="1524,-478.1 1520.5,-468.1 1517,-478.1 1524,-478.1"/>
</g>
<!-- 5 -->
<g id="node6" class="node">
<title>5</title>
<path fill="none" stroke="#d8a456" stroke-width="2" d="M750,-612C750,-612 635,-612 635,-612 629,-612 623,-606 623,-600 623,-600 623,-588 623,-588 623,-582 629,-576 635,-576 635,-576 750,-576 750,-576 756,-576 762,-582 762,-588 762,-588 762,-600 762,-600 762,-606 756,-612 750,-612"/>
<text text-anchor="middle" x="692.5" y="-597" font-family="sans" font-size="10.00">build_ccs</text>
<text text-anchor="middle" x="692.5" y="-586" font-family="sans" font-size="10.00">pacbioRun: lib40_210917</text>
</g>
<!-- 5&#45;&gt;4 -->
<g id="edge25" class="edge">
<title>5&#45;&gt;4</title>
<path fill="none" stroke="grey" stroke-width="2" d="M762.19,-577.44C765.33,-576.92 768.44,-576.43 771.5,-576 1034.59,-538.58 1353.6,-527.15 1472.67,-524.04"/>
<polygon fill="grey" stroke="grey" stroke-width="2" points="1472.98,-527.54 1482.89,-523.78 1472.81,-520.54 1472.98,-527.54"/>
</g>
<!-- 6 -->
<g id="node7" class="node">
<title>6</title>
<path fill="none" stroke="#d8a456" stroke-width="2" d="M907,-612C907,-612 792,-612 792,-612 786,-612 780,-606 780,-600 780,-600 780,-588 780,-588 780,-582 786,-576 792,-576 792,-576 907,-576 907,-576 913,-576 919,-582 919,-588 919,-588 919,-600 919,-600 919,-606 913,-612 907,-612"/>
<text text-anchor="middle" x="849.5" y="-597" font-family="sans" font-size="10.00">build_ccs</text>
<text text-anchor="middle" x="849.5" y="-586" font-family="sans" font-size="10.00">pacbioRun: lib41_210917</text>
</g>
<!-- 6&#45;&gt;4 -->
<g id="edge26" class="edge">
<title>6&#45;&gt;4</title>
<path fill="none" stroke="grey" stroke-width="2" d="M919.2,-577.52C922.34,-576.97 925.45,-576.46 928.5,-576 1129.51,-545.49 1371.78,-530.55 1472.73,-525.28"/>
<polygon fill="grey" stroke="grey" stroke-width="2" points="1473.1,-528.77 1482.91,-524.76 1472.74,-521.78 1473.1,-528.77"/>
</g>
<!-- 7 -->
<g id="node8" class="node">
<title>7</title>
<path fill="none" stroke="#d8a456" stroke-width="2" d="M1076,-612C1076,-612 949,-612 949,-612 943,-612 937,-606 937,-600 937,-600 937,-588 937,-588 937,-582 943,-576 949,-576 949,-576 1076,-576 1076,-576 1082,-576 1088,-582 1088,-588 1088,-588 1088,-600 1088,-600 1088,-606 1082,-612 1076,-612"/>
<text text-anchor="middle" x="1012.5" y="-597" font-family="sans" font-size="10.00">build_ccs</text>
<text text-anchor="middle" x="1012.5" y="-586" font-family="sans" font-size="10.00">pacbioRun: lib40_211118_A</text>
</g>
<!-- 7&#45;&gt;4 -->
<g id="edge27" class="edge">
<title>7&#45;&gt;4</title>
<path fill="none" stroke="grey" stroke-width="2" d="M1088.45,-577.53C1091.5,-576.99 1094.53,-576.48 1097.5,-576 1232.96,-554 1394.11,-536.06 1472.67,-527.85"/>
<polygon fill="grey" stroke="grey" stroke-width="2" points="1473.15,-531.31 1482.74,-526.8 1472.43,-524.35 1473.15,-531.31"/>
</g>
<!-- 8 -->
<g id="node9" class="node">
<title>8</title>
<path fill="none" stroke="#d8a456" stroke-width="2" d="M1245,-612C1245,-612 1118,-612 1118,-612 1112,-612 1106,-606 1106,-600 1106,-600 1106,-588 1106,-588 1106,-582 1112,-576 1118,-576 1118,-576 1245,-576 1245,-576 1251,-576 1257,-582 1257,-588 1257,-588 1257,-600 1257,-600 1257,-606 1251,-612 1245,-612"/>
<text text-anchor="middle" x="1181.5" y="-597" font-family="sans" font-size="10.00">build_ccs</text>
<text text-anchor="middle" x="1181.5" y="-586" font-family="sans" font-size="10.00">pacbioRun: lib40_211118_B</text>
</g>
<!-- 8&#45;&gt;4 -->
<g id="edge28" class="edge">
<title>8&#45;&gt;4</title>
<path fill="none" stroke="grey" stroke-width="2" d="M1257.16,-577.38C1323.11,-563.76 1416.73,-544.43 1472.76,-532.86"/>
<polygon fill="grey" stroke="grey" stroke-width="2" points="1473.69,-536.24 1482.77,-530.79 1472.27,-529.38 1473.69,-536.24"/>
</g>
<!-- 9 -->
<g id="node10" class="node">
<title>9</title>
<path fill="none" stroke="#d8a456" stroke-width="2" d="M1414,-612C1414,-612 1287,-612 1287,-612 1281,-612 1275,-606 1275,-600 1275,-600 1275,-588 1275,-588 1275,-582 1281,-576 1287,-576 1287,-576 1414,-576 1414,-576 1420,-576 1426,-582 1426,-588 1426,-588 1426,-600 1426,-600 1426,-606 1420,-612 1414,-612"/>
<text text-anchor="middle" x="1350.5" y="-597" font-family="sans" font-size="10.00">build_ccs</text>
<text text-anchor="middle" x="1350.5" y="-586" font-family="sans" font-size="10.00">pacbioRun: lib40_211118_C</text>
</g>
<!-- 9&#45;&gt;4 -->
<g id="edge29" class="edge">
<title>9&#45;&gt;4</title>
<path fill="none" stroke="grey" stroke-width="2" d="M1392.09,-575.88C1416.67,-565.76 1447.87,-552.91 1473.36,-542.41"/>
<polygon fill="grey" stroke="grey" stroke-width="2" points="1474.91,-545.56 1482.82,-538.51 1472.24,-539.09 1474.91,-545.56"/>
</g>
<!-- 10 -->
<g id="node11" class="node">
<title>10</title>
<path fill="none" stroke="#d8a456" stroke-width="2" d="M1584.5,-612C1584.5,-612 1456.5,-612 1456.5,-612 1450.5,-612 1444.5,-606 1444.5,-600 1444.5,-600 1444.5,-588 1444.5,-588 1444.5,-582 1450.5,-576 1456.5,-576 1456.5,-576 1584.5,-576 1584.5,-576 1590.5,-576 1596.5,-582 1596.5,-588 1596.5,-588 1596.5,-600 1596.5,-600 1596.5,-606 1590.5,-612 1584.5,-612"/>
<text text-anchor="middle" x="1520.5" y="-597" font-family="sans" font-size="10.00">build_ccs</text>
<text text-anchor="middle" x="1520.5" y="-586" font-family="sans" font-size="10.00">pacbioRun: lib40_211118_D</text>
</g>
<!-- 10&#45;&gt;4 -->
<g id="edge30" class="edge">
<title>10&#45;&gt;4</title>
<path fill="none" stroke="grey" stroke-width="2" d="M1520.5,-575.7C1520.5,-567.98 1520.5,-558.71 1520.5,-550.11"/>
<polygon fill="grey" stroke="grey" stroke-width="2" points="1524,-550.1 1520.5,-540.1 1517,-550.1 1524,-550.1"/>
</g>
<!-- 11 -->
<g id="node12" class="node">
<title>11</title>
<path fill="none" stroke="#d8a456" stroke-width="2" d="M1752.5,-612C1752.5,-612 1626.5,-612 1626.5,-612 1620.5,-612 1614.5,-606 1614.5,-600 1614.5,-600 1614.5,-588 1614.5,-588 1614.5,-582 1620.5,-576 1626.5,-576 1626.5,-576 1752.5,-576 1752.5,-576 1758.5,-576 1764.5,-582 1764.5,-588 1764.5,-588 1764.5,-600 1764.5,-600 1764.5,-606 1758.5,-612 1752.5,-612"/>
<text text-anchor="middle" x="1689.5" y="-597" font-family="sans" font-size="10.00">build_ccs</text>
<text text-anchor="middle" x="1689.5" y="-586" font-family="sans" font-size="10.00">pacbioRun: lib46_200916_1</text>
</g>
<!-- 11&#45;&gt;4 -->
<g id="edge31" class="edge">
<title>11&#45;&gt;4</title>
<path fill="none" stroke="grey" stroke-width="2" d="M1648.16,-575.88C1623.81,-565.79 1592.93,-553 1567.63,-542.52"/>
<polygon fill="grey" stroke="grey" stroke-width="2" points="1568.82,-539.23 1558.24,-538.63 1566.14,-545.69 1568.82,-539.23"/>
</g>
<!-- 12 -->
<g id="node13" class="node">
<title>12</title>
<path fill="none" stroke="#d8a456" stroke-width="2" d="M1920.5,-612C1920.5,-612 1794.5,-612 1794.5,-612 1788.5,-612 1782.5,-606 1782.5,-600 1782.5,-600 1782.5,-588 1782.5,-588 1782.5,-582 1788.5,-576 1794.5,-576 1794.5,-576 1920.5,-576 1920.5,-576 1926.5,-576 1932.5,-582 1932.5,-588 1932.5,-588 1932.5,-600 1932.5,-600 1932.5,-606 1926.5,-612 1920.5,-612"/>
<text text-anchor="middle" x="1857.5" y="-597" font-family="sans" font-size="10.00">build_ccs</text>
<text text-anchor="middle" x="1857.5" y="-586" font-family="sans" font-size="10.00">pacbioRun: lib46_200916_2</text>
</g>
<!-- 12&#45;&gt;4 -->
<g id="edge32" class="edge">
<title>12&#45;&gt;4</title>
<path fill="none" stroke="grey" stroke-width="2" d="M1782.29,-577.38C1716.73,-563.76 1623.65,-544.43 1567.95,-532.86"/>
<polygon fill="grey" stroke="grey" stroke-width="2" points="1568.51,-529.4 1558,-530.79 1567.08,-536.25 1568.51,-529.4"/>
</g>
<!-- 13 -->
<g id="node14" class="node">
<title>13</title>
<path fill="none" stroke="#d8a456" stroke-width="2" d="M2078,-612C2078,-612 1963,-612 1963,-612 1957,-612 1951,-606 1951,-600 1951,-600 1951,-588 1951,-588 1951,-582 1957,-576 1963,-576 1963,-576 2078,-576 2078,-576 2084,-576 2090,-582 2090,-588 2090,-588 2090,-600 2090,-600 2090,-606 2084,-612 2078,-612"/>
<text text-anchor="middle" x="2020.5" y="-597" font-family="sans" font-size="10.00">build_ccs</text>
<text text-anchor="middle" x="2020.5" y="-586" font-family="sans" font-size="10.00">pacbioRun: lib46_201110</text>
</g>
<!-- 13&#45;&gt;4 -->
<g id="edge33" class="edge">
<title>13&#45;&gt;4</title>
<path fill="none" stroke="grey" stroke-width="2" d="M1950.78,-577.65C1947.65,-577.07 1944.54,-576.52 1941.5,-576 1806.84,-553.08 1646.38,-535.56 1568.14,-527.64"/>
<polygon fill="grey" stroke="grey" stroke-width="2" points="1568.41,-524.15 1558.11,-526.63 1567.71,-531.11 1568.41,-524.15"/>
</g>
<!-- 14 -->
<g id="node15" class="node">
<title>14</title>
<path fill="none" stroke="#d8a456" stroke-width="2" d="M2246.5,-612C2246.5,-612 2120.5,-612 2120.5,-612 2114.5,-612 2108.5,-606 2108.5,-600 2108.5,-600 2108.5,-588 2108.5,-588 2108.5,-582 2114.5,-576 2120.5,-576 2120.5,-576 2246.5,-576 2246.5,-576 2252.5,-576 2258.5,-582 2258.5,-588 2258.5,-588 2258.5,-600 2258.5,-600 2258.5,-606 2252.5,-612 2246.5,-612"/>
<text text-anchor="middle" x="2183.5" y="-597" font-family="sans" font-size="10.00">build_ccs</text>
<text text-anchor="middle" x="2183.5" y="-586" font-family="sans" font-size="10.00">pacbioRun: lib46_211108_1</text>
</g>
<!-- 14&#45;&gt;4 -->
<g id="edge34" class="edge">
<title>14&#45;&gt;4</title>
<path fill="none" stroke="grey" stroke-width="2" d="M2108.46,-577.39C2105.44,-576.9 2102.44,-576.43 2099.5,-576 1903.44,-547.27 1667.61,-531.44 1568.29,-525.62"/>
<polygon fill="grey" stroke="grey" stroke-width="2" points="1568.45,-522.12 1558.26,-525.04 1568.04,-529.11 1568.45,-522.12"/>
</g>
<!-- 15 -->
<g id="node16" class="node">
<title>15</title>
<path fill="none" stroke="#d8a456" stroke-width="2" d="M2414.5,-612C2414.5,-612 2288.5,-612 2288.5,-612 2282.5,-612 2276.5,-606 2276.5,-600 2276.5,-600 2276.5,-588 2276.5,-588 2276.5,-582 2282.5,-576 2288.5,-576 2288.5,-576 2414.5,-576 2414.5,-576 2420.5,-576 2426.5,-582 2426.5,-588 2426.5,-588 2426.5,-600 2426.5,-600 2426.5,-606 2420.5,-612 2414.5,-612"/>
<text text-anchor="middle" x="2351.5" y="-597" font-family="sans" font-size="10.00">build_ccs</text>
<text text-anchor="middle" x="2351.5" y="-586" font-family="sans" font-size="10.00">pacbioRun: lib46_211108_2</text>
</g>
<!-- 15&#45;&gt;4 -->
<g id="edge35" class="edge">
<title>15&#45;&gt;4</title>
<path fill="none" stroke="grey" stroke-width="2" d="M2276.48,-577.32C2273.45,-576.84 2270.45,-576.4 2267.5,-576 2005.2,-540.3 1687.62,-527.86 1568.6,-524.27"/>
<polygon fill="grey" stroke="grey" stroke-width="2" points="1568.48,-520.76 1558.38,-523.96 1568.27,-527.76 1568.48,-520.76"/>
</g>
<!-- 16&#45;&gt;0 -->
<g id="edge5" class="edge">
<title>16&#45;&gt;0</title>
<path fill="none" stroke="grey" stroke-width="2" d="M1419.32,-433.6C1422.42,-433.04 1425.49,-432.5 1428.5,-432 1553.56,-411.11 1585.73,-412.04 1711.5,-396 1866.17,-376.27 2407.5,-462.93 2407.5,-307 2407.5,-307 2407.5,-307 2407.5,-161 2407.5,-59.9 1633.86,-27.75 1414.09,-20.66"/>
<polygon fill="grey" stroke="grey" stroke-width="2" points="1414.15,-17.16 1404.05,-20.34 1413.93,-24.16 1414.15,-17.16"/>
</g>
<!-- 16&#45;&gt;22 -->
<g id="edge42" class="edge">
<title>16&#45;&gt;22</title>
<path fill="none" stroke="grey" stroke-width="2" d="M1346.5,-431.7C1346.5,-423.98 1346.5,-414.71 1346.5,-406.11"/>
<polygon fill="grey" stroke="grey" stroke-width="2" points="1350,-406.1 1346.5,-396.1 1343,-406.1 1350,-406.1"/>
</g>
<!-- 16&#45;&gt;23 -->
<g id="edge49" class="edge">
<title>16&#45;&gt;23</title>
<path fill="none" stroke="grey" stroke-width="2" d="M1404.15,-431.98C1439.24,-421.61 1484.97,-408.07 1525.5,-396 1604.79,-372.38 1695.92,-345.04 1756.1,-326.97"/>
<polygon fill="grey" stroke="grey" stroke-width="2" points="1757.29,-330.26 1765.86,-324.03 1755.27,-323.56 1757.29,-330.26"/>
</g>
<!-- 16&#45;&gt;24 -->
<g id="edge57" class="edge">
<title>16&#45;&gt;24</title>
<path fill="none" stroke="grey" stroke-width="2" d="M1273.7,-433.39C1270.94,-432.91 1268.19,-432.44 1265.5,-432 1128.6,-409.73 1082.91,-450.82 955.5,-396 932.6,-386.15 931.65,-375.95 912.5,-360 900.9,-350.34 888.1,-339.73 877.01,-330.55"/>
<polygon fill="grey" stroke="grey" stroke-width="2" points="879.21,-327.83 869.28,-324.16 874.75,-333.23 879.21,-327.83"/>
</g>
<!-- 16&#45;&gt;25 -->
<g id="edge65" class="edge">
<title>16&#45;&gt;25</title>
<path fill="none" stroke="grey" stroke-width="2" d="M1364.18,-431.98C1374.81,-421.67 1388.54,-408.19 1400.5,-396 1421.4,-374.69 1444.66,-349.97 1461.39,-331.99"/>
<polygon fill="grey" stroke="grey" stroke-width="2" points="1464.35,-333.95 1468.59,-324.25 1459.22,-329.19 1464.35,-333.95"/>
</g>
<!-- 16&#45;&gt;26 -->
<g id="edge73" class="edge">
<title>16&#45;&gt;26</title>
<path fill="none" stroke="grey" stroke-width="2" d="M1299.98,-431.85C1284.25,-423.56 1268.42,-411.88 1259.5,-396 1251.66,-382.05 1252.53,-374.4 1259.5,-360 1265.26,-348.1 1275.14,-338.06 1285.56,-330.02"/>
<polygon fill="grey" stroke="grey" stroke-width="2" points="1287.87,-332.68 1293.97,-324.02 1283.8,-326.98 1287.87,-332.68"/>
</g>
<!-- 16&#45;&gt;27 -->
<g id="edge81" class="edge">
<title>16&#45;&gt;27</title>
<path fill="none" stroke="grey" stroke-width="2" d="M1273.74,-433.14C1270.96,-432.72 1268.21,-432.34 1265.5,-432 1219.04,-426.17 455.89,-429.81 423.5,-396 405.28,-376.98 425.2,-350.41 445.43,-331.26"/>
<polygon fill="grey" stroke="grey" stroke-width="2" points="448.04,-333.61 453.12,-324.31 443.35,-328.42 448.04,-333.61"/>
</g>
<!-- 16&#45;&gt;28 -->
<g id="edge89" class="edge">
<title>16&#45;&gt;28</title>
<path fill="none" stroke="grey" stroke-width="2" d="M1273.73,-433.21C1270.96,-432.77 1268.21,-432.37 1265.5,-432 1201.96,-423.39 733.41,-442.74 689.5,-396 673.95,-379.44 680.55,-353.03 689.17,-333.27"/>
<polygon fill="grey" stroke="grey" stroke-width="2" points="692.36,-334.71 693.48,-324.18 686.03,-331.71 692.36,-334.71"/>
</g>
<!-- 16&#45;&gt;29 -->
<g id="edge97" class="edge">
<title>16&#45;&gt;29</title>
<path fill="none" stroke="grey" stroke-width="2" d="M1386.43,-431.87C1447.15,-405.82 1562.57,-356.3 1628.36,-328.08"/>
<polygon fill="grey" stroke="grey" stroke-width="2" points="1629.88,-331.24 1637.69,-324.08 1627.12,-324.8 1629.88,-331.24"/>
</g>
<!-- 16&#45;&gt;30 -->
<g id="edge105" class="edge">
<title>16&#45;&gt;30</title>
<path fill="none" stroke="grey" stroke-width="2" d="M1419.37,-433.87C1422.46,-433.24 1425.51,-432.61 1428.5,-432 1627.33,-391.28 1862.31,-343.98 1976.79,-320.99"/>
<polygon fill="grey" stroke="grey" stroke-width="2" points="1977.71,-324.37 1986.82,-318.97 1976.33,-317.51 1977.71,-324.37"/>
</g>
<!-- 17&#45;&gt;0 -->
<g id="edge6" class="edge">
<title>17&#45;&gt;0</title>
<path fill="none" stroke="grey" stroke-width="2" d="M1898.1,-442.94C2078.82,-425.82 2559.5,-374.01 2559.5,-307 2559.5,-307 2559.5,-307 2559.5,-161 2559.5,-80.4 2478.92,-94.42 2401.5,-72 2213.99,-17.71 1604.79,-17.22 1414.1,-18.46"/>
<polygon fill="grey" stroke="grey" stroke-width="2" points="1413.98,-14.96 1404.01,-18.53 1414.03,-21.96 1413.98,-14.96"/>
</g>
<!-- 17&#45;&gt;22 -->
<g id="edge43" class="edge">
<title>17&#45;&gt;22</title>
<path fill="none" stroke="grey" stroke-width="2" d="M1762.61,-433.49C1759.87,-432.97 1757.16,-432.47 1754.5,-432 1628.78,-409.82 1479.74,-392.78 1401.22,-384.51"/>
<polygon fill="grey" stroke="grey" stroke-width="2" points="1401.39,-381.01 1391.08,-383.45 1400.66,-387.97 1401.39,-381.01"/>
</g>
<!-- 17&#45;&gt;23 -->
<g id="edge50" class="edge">
<title>17&#45;&gt;23</title>
<path fill="none" stroke="grey" stroke-width="2" d="M1898.35,-444.85C2006.96,-437.5 2209.92,-420.62 2231.5,-396 2242.05,-383.97 2242.06,-372.02 2231.5,-360 2225.94,-353.68 2007.8,-328.04 1892.43,-314.88"/>
<polygon fill="grey" stroke="grey" stroke-width="2" points="1892.61,-311.38 1882.27,-313.72 1891.81,-318.33 1892.61,-311.38"/>
</g>
<!-- 17&#45;&gt;24 -->
<g id="edge58" class="edge">
<title>17&#45;&gt;24</title>
<path fill="none" stroke="grey" stroke-width="2" d="M1762.64,-433.32C1759.89,-432.84 1757.17,-432.4 1754.5,-432 1551.26,-401.49 1497.16,-423.52 1293.5,-396 1129.45,-373.83 1087.22,-359.96 921.36,-324.15"/>
<polygon fill="grey" stroke="grey" stroke-width="2" points="921.81,-320.67 911.29,-321.99 920.33,-327.51 921.81,-320.67"/>
</g>
<!-- 17&#45;&gt;25 -->
<g id="edge66" class="edge">
<title>17&#45;&gt;25</title>
<path fill="none" stroke="grey" stroke-width="2" d="M1810.1,-431.7C1785.44,-411.64 1741.94,-378.91 1699.5,-360 1656.26,-340.73 1604.88,-327.74 1563.19,-319.44"/>
<polygon fill="grey" stroke="grey" stroke-width="2" points="1563.84,-316 1553.36,-317.53 1562.51,-322.87 1563.84,-316"/>
</g>
<!-- 17&#45;&gt;26 -->
<g id="edge74" class="edge">
<title>17&#45;&gt;26</title>
<path fill="none" stroke="grey" stroke-width="2" d="M1771.31,-431.95C1708.59,-413.93 1606.63,-384.73 1518.5,-360 1478.94,-348.9 1434.74,-336.68 1398.72,-326.78"/>
<polygon fill="grey" stroke="grey" stroke-width="2" points="1399.37,-323.33 1388.8,-324.05 1397.51,-330.08 1399.37,-323.33"/>
</g>
<!-- 17&#45;&gt;27 -->
<g id="edge82" class="edge">
<title>17&#45;&gt;27</title>
<path fill="none" stroke="grey" stroke-width="2" d="M1762.65,-433.2C1759.91,-432.76 1757.18,-432.35 1754.5,-432 1377.87,-382.34 1277.46,-443.09 900.5,-396 776.02,-380.45 633.79,-347.51 549.48,-326.36"/>
<polygon fill="grey" stroke="grey" stroke-width="2" points="550.3,-322.95 539.75,-323.9 548.59,-329.74 550.3,-322.95"/>
</g>
<!-- 17&#45;&gt;28 -->
<g id="edge90" class="edge">
<title>17&#45;&gt;28</title>
<path fill="none" stroke="grey" stroke-width="2" d="M1762.65,-433.24C1759.9,-432.78 1757.18,-432.37 1754.5,-432 1458.64,-391.26 1379.15,-438.22 1083.5,-396 972.92,-380.21 847.19,-347.85 771.66,-326.81"/>
<polygon fill="grey" stroke="grey" stroke-width="2" points="772.38,-323.37 761.8,-324.05 770.49,-330.11 772.38,-323.37"/>
</g>
<!-- 17&#45;&gt;29 -->
<g id="edge98" class="edge">
<title>17&#45;&gt;29</title>
<path fill="none" stroke="grey" stroke-width="2" d="M1898.33,-438.87C1923.76,-431.41 1950.18,-418.47 1965.5,-396 1974.51,-382.78 1975.82,-372.23 1965.5,-360 1936.5,-325.63 1815.49,-332.23 1754.94,-323.75"/>
<polygon fill="grey" stroke="grey" stroke-width="2" points="1755.51,-320.29 1745.07,-322.11 1754.36,-327.2 1755.51,-320.29"/>
</g>
<!-- 17&#45;&gt;30 -->
<g id="edge106" class="edge">
<title>17&#45;&gt;30</title>
<path fill="none" stroke="grey" stroke-width="2" d="M1898.05,-445.26C2010.42,-438.33 2225.74,-421.83 2248.5,-396 2291.15,-347.6 2190.37,-324.37 2116.35,-314.14"/>
<polygon fill="grey" stroke="grey" stroke-width="2" points="2116.47,-310.62 2106.1,-312.78 2115.55,-317.56 2116.47,-310.62"/>
</g>
<!-- 18&#45;&gt;0 -->
<g id="edge7" class="edge">
<title>18&#45;&gt;0</title>
<path fill="none" stroke="grey" stroke-width="2" d="M1745.33,-433.5C1748.42,-432.95 1751.49,-432.44 1754.5,-432 1897.64,-411.07 2274.24,-458.94 2404.5,-396 2452.12,-372.99 2483.5,-359.89 2483.5,-307 2483.5,-307 2483.5,-307 2483.5,-161 2483.5,-136.79 2568.41,-141.52 2335.5,-72 2161.5,-20.06 1597.52,-17.88 1414.46,-18.6"/>
<polygon fill="grey" stroke="grey" stroke-width="2" points="1414.22,-15.1 1404.23,-18.64 1414.25,-22.1 1414.22,-15.1"/>
</g>
<!-- 18&#45;&gt;22 -->
<g id="edge44" class="edge">
<title>18&#45;&gt;22</title>
<path fill="none" stroke="grey" stroke-width="2" d="M1621.71,-433.76C1618.94,-433.15 1616.19,-432.56 1613.5,-432 1521.64,-412.92 1496.93,-417.02 1405.5,-396 1404.04,-395.66 1402.56,-395.31 1401.07,-394.95"/>
<polygon fill="grey" stroke="grey" stroke-width="2" points="1401.7,-391.5 1391.14,-392.42 1399.97,-398.28 1401.7,-391.5"/>
</g>
<!-- 18&#45;&gt;23 -->
<g id="edge51" class="edge">
<title>18&#45;&gt;23</title>
<path fill="none" stroke="grey" stroke-width="2" d="M1745.35,-433.63C1748.43,-433.04 1751.5,-432.49 1754.5,-432 1798.65,-424.77 2125.32,-429.02 2155.5,-396 2166.3,-384.19 2165.89,-372.17 2155.5,-360 2147,-350.04 1987.62,-328.1 1892.48,-315.8"/>
<polygon fill="grey" stroke="grey" stroke-width="2" points="1892.71,-312.3 1882.35,-314.5 1891.82,-319.24 1892.71,-312.3"/>
</g>
<!-- 18&#45;&gt;24 -->
<g id="edge59" class="edge">
<title>18&#45;&gt;24</title>
<path fill="none" stroke="grey" stroke-width="2" d="M1621.78,-433.39C1618.99,-432.88 1616.22,-432.41 1613.5,-432 1485.37,-412.63 1152.88,-441.37 1031.5,-396 1006.85,-386.79 1007.43,-372.91 984.5,-360 961.79,-347.22 935.38,-336.15 911.91,-327.49"/>
<polygon fill="grey" stroke="grey" stroke-width="2" points="912.99,-324.16 902.39,-324.05 910.6,-330.74 912.99,-324.16"/>
</g>
<!-- 18&#45;&gt;25 -->
<g id="edge67" class="edge">
<title>18&#45;&gt;25</title>
<path fill="none" stroke="grey" stroke-width="2" d="M1670.97,-431.66C1656.17,-412.16 1629.94,-380.55 1601.5,-360 1583.79,-347.2 1562.5,-336.44 1542.97,-328.03"/>
<polygon fill="grey" stroke="grey" stroke-width="2" points="1544.12,-324.71 1533.54,-324.09 1541.42,-331.17 1544.12,-324.71"/>
</g>
<!-- 18&#45;&gt;26 -->
<g id="edge75" class="edge">
<title>18&#45;&gt;26</title>
<path fill="none" stroke="grey" stroke-width="2" d="M1640.44,-431.87C1574.81,-405.77 1449.95,-356.1 1379.07,-327.91"/>
<polygon fill="grey" stroke="grey" stroke-width="2" points="1380.02,-324.52 1369.44,-324.08 1377.44,-331.03 1380.02,-324.52"/>
</g>
<!-- 18&#45;&gt;27 -->
<g id="edge83" class="edge">
<title>18&#45;&gt;27</title>
<path fill="none" stroke="grey" stroke-width="2" d="M1621.8,-433.29C1619,-432.8 1616.23,-432.37 1613.5,-432 1552.14,-423.65 548.04,-434.44 499.5,-396 481.23,-381.53 475.98,-354.73 474.85,-334.3"/>
<polygon fill="grey" stroke="grey" stroke-width="2" points="478.35,-334.2 474.59,-324.3 471.35,-334.39 478.35,-334.2"/>
</g>
<!-- 18&#45;&gt;28 -->
<g id="edge91" class="edge">
<title>18&#45;&gt;28</title>
<path fill="none" stroke="grey" stroke-width="2" d="M1621.79,-433.32C1619,-432.83 1616.22,-432.38 1613.5,-432 1520.12,-418.81 848.15,-441.41 765.5,-396 740.85,-382.46 723.86,-354.43 713.98,-333.42"/>
<polygon fill="grey" stroke="grey" stroke-width="2" points="717.08,-331.77 709.82,-324.05 710.68,-334.61 717.08,-331.77"/>
</g>
<!-- 18&#45;&gt;29 -->
<g id="edge99" class="edge">
<title>18&#45;&gt;29</title>
<path fill="none" stroke="grey" stroke-width="2" d="M1745.22,-434.07C1805.07,-419.46 1887.21,-398.96 1889.5,-396 1899.3,-383.36 1899.35,-372.61 1889.5,-360 1887.31,-357.19 1814.54,-339.39 1754.86,-325.19"/>
<polygon fill="grey" stroke="grey" stroke-width="2" points="1755.57,-321.76 1745.03,-322.85 1753.95,-328.57 1755.57,-321.76"/>
</g>
<!-- 18&#45;&gt;30 -->
<g id="edge107" class="edge">
<title>18&#45;&gt;30</title>
<path fill="none" stroke="grey" stroke-width="2" d="M1745.33,-433.54C1748.42,-432.97 1751.49,-432.45 1754.5,-432 1815.38,-422.8 2265.4,-440.93 2307.5,-396 2366.64,-332.88 2212.31,-314.53 2116.37,-309.19"/>
<polygon fill="grey" stroke="grey" stroke-width="2" points="2116.29,-305.68 2106.12,-308.66 2115.93,-312.67 2116.29,-305.68"/>
</g>
<!-- 19&#45;&gt;0 -->
<g id="edge8" class="edge">
<title>19&#45;&gt;0</title>
<path fill="none" stroke="grey" stroke-width="2" d="M976.3,-437.36C963.17,-435.3 949.42,-433.38 936.5,-432 858.29,-423.64 297.68,-435.22 229.5,-396 188.58,-372.46 171.5,-354.21 171.5,-307 171.5,-307 171.5,-307 171.5,-161 171.5,-97.07 224.63,-94.42 284.5,-72 379.58,-36.4 1089.75,-23 1298.78,-19.81"/>
<polygon fill="grey" stroke="grey" stroke-width="2" points="1298.99,-23.3 1308.93,-19.65 1298.88,-16.3 1298.99,-23.3"/>
</g>
<!-- 19&#45;&gt;22 -->
<g id="edge45" class="edge">
<title>19&#45;&gt;22</title>
<path fill="none" stroke="grey" stroke-width="2" d="M1104.67,-434.25C1108,-433.49 1111.29,-432.74 1114.5,-432 1175.09,-418.12 1244.6,-402.25 1291.61,-391.52"/>
<polygon fill="grey" stroke="grey" stroke-width="2" points="1292.62,-394.88 1301.59,-389.24 1291.06,-388.06 1292.62,-394.88"/>
</g>
<!-- 19&#45;&gt;23 -->
<g id="edge52" class="edge">
<title>19&#45;&gt;23</title>
<path fill="none" stroke="grey" stroke-width="2" d="M1104.55,-433.59C1107.91,-433 1111.24,-432.47 1114.5,-432 1251.78,-412.41 1611.63,-454.19 1737.5,-396 1745.42,-392.34 1777.83,-357.12 1800.26,-332.11"/>
<polygon fill="grey" stroke="grey" stroke-width="2" points="1803.1,-334.19 1807.15,-324.4 1797.88,-329.52 1803.1,-334.19"/>
</g>
<!-- 19&#45;&gt;24 -->
<g id="edge60" class="edge">
<title>19&#45;&gt;24</title>
<path fill="none" stroke="grey" stroke-width="2" d="M976.49,-436C921.57,-424.21 849.97,-407.02 841.5,-396 828.05,-378.5 831.73,-352.93 837.64,-333.68"/>
<polygon fill="grey" stroke="grey" stroke-width="2" points="841.03,-334.6 840.96,-324 834.41,-332.33 841.03,-334.6"/>
</g>
<!-- 19&#45;&gt;25 -->
<g id="edge68" class="edge">
<title>19&#45;&gt;25</title>
<path fill="none" stroke="grey" stroke-width="2" d="M1073.29,-431.88C1112.24,-412.14 1179.62,-379.87 1240.5,-360 1309.72,-337.41 1331.54,-339.92 1405.83,-324.32"/>
<polygon fill="grey" stroke="grey" stroke-width="2" points="1406.61,-327.73 1415.66,-322.22 1405.15,-320.89 1406.61,-327.73"/>
</g>
<!-- 19&#45;&gt;26 -->
<g id="edge76" class="edge">
<title>19&#45;&gt;26</title>
<path fill="none" stroke="grey" stroke-width="2" d="M1048.8,-431.73C1059.49,-411.38 1080.02,-378.06 1107.5,-360 1113.53,-356.04 1185.35,-339.04 1245.12,-325.35"/>
<polygon fill="grey" stroke="grey" stroke-width="2" points="1246.01,-328.73 1254.98,-323.09 1244.45,-321.91 1246.01,-328.73"/>
</g>
<!-- 19&#45;&gt;27 -->
<g id="edge84" class="edge">
<title>19&#45;&gt;27</title>
<path fill="none" stroke="grey" stroke-width="2" d="M976.45,-438.66C920.44,-429.15 837.1,-413.83 765.5,-396 684.82,-375.91 593.37,-346.75 535.11,-327.35"/>
<polygon fill="grey" stroke="grey" stroke-width="2" points="535.93,-323.94 525.34,-324.08 533.71,-330.57 535.93,-323.94"/>
</g>
<!-- 19&#45;&gt;28 -->
<g id="edge92" class="edge">
<title>19&#45;&gt;28</title>
<path fill="none" stroke="grey" stroke-width="2" d="M976.4,-439.58C932.97,-431.65 875.06,-418 827.5,-396 791.14,-379.18 754.48,-351.19 730.56,-331.09"/>
<polygon fill="grey" stroke="grey" stroke-width="2" points="732.53,-328.17 722.65,-324.34 727.98,-333.49 732.53,-328.17"/>
</g>
<!-- 19&#45;&gt;29 -->
<g id="edge100" class="edge">
<title>19&#45;&gt;29</title>
<path fill="none" stroke="grey" stroke-width="2" d="M1104.58,-433.76C1107.93,-433.13 1111.25,-432.54 1114.5,-432 1271.85,-406.1 1326.51,-462.4 1471.5,-396 1492.65,-386.31 1489.45,-371.8 1509.5,-360 1537.21,-343.69 1570.48,-331.84 1600.09,-323.54"/>
<polygon fill="grey" stroke="grey" stroke-width="2" points="1601.24,-326.85 1609.97,-320.85 1599.41,-320.09 1601.24,-326.85"/>
</g>
<!-- 19&#45;&gt;30 -->
<g id="edge108" class="edge">
<title>19&#45;&gt;30</title>
<path fill="none" stroke="grey" stroke-width="2" d="M1104.54,-433.52C1107.9,-432.95 1111.23,-432.44 1114.5,-432 1212.48,-418.88 1920.84,-450.23 2003.5,-396 2024.61,-382.15 2035.66,-354.82 2041.24,-334.08"/>
<polygon fill="grey" stroke="grey" stroke-width="2" points="2044.67,-334.77 2043.62,-324.23 2037.87,-333.13 2044.67,-334.77"/>
</g>
<!-- 20&#45;&gt;0 -->
<g id="edge9" class="edge">
<title>20&#45;&gt;0</title>
<path fill="none" stroke="grey" stroke-width="2" d="M1122.89,-433.42C1119.72,-432.9 1116.58,-432.42 1113.5,-432 950.57,-409.97 532.89,-440.12 374.5,-396 294.23,-373.64 209.5,-390.32 209.5,-307 209.5,-307 209.5,-307 209.5,-161 209.5,-50.09 1065.09,-24.84 1298.37,-20.01"/>
<polygon fill="grey" stroke="grey" stroke-width="2" points="1298.75,-23.51 1308.68,-19.81 1298.61,-16.51 1298.75,-23.51"/>
</g>
<!-- 20&#45;&gt;22 -->
<g id="edge46" class="edge">
<title>20&#45;&gt;22</title>
<path fill="none" stroke="grey" stroke-width="2" d="M1227.91,-431.88C1249.37,-422.31 1276.3,-410.3 1299.07,-400.15"/>
<polygon fill="grey" stroke="grey" stroke-width="2" points="1300.51,-403.34 1308.22,-396.07 1297.66,-396.94 1300.51,-403.34"/>
</g>
<!-- 20&#45;&gt;23 -->
<g id="edge53" class="edge">
<title>20&#45;&gt;23</title>
<path fill="none" stroke="grey" stroke-width="2" d="M1256.12,-433.51C1259.29,-432.96 1262.42,-432.45 1265.5,-432 1377.92,-415.55 1680.32,-458.05 1775.5,-396 1797.04,-381.96 1809.34,-354.66 1815.92,-333.98"/>
<polygon fill="grey" stroke="grey" stroke-width="2" points="1819.34,-334.74 1818.77,-324.16 1812.62,-332.78 1819.34,-334.74"/>
</g>
<!-- 20&#45;&gt;24 -->
<g id="edge61" class="edge">
<title>20&#45;&gt;24</title>
<path fill="none" stroke="grey" stroke-width="2" d="M1122.8,-433.93C1119.66,-433.27 1116.55,-432.62 1113.5,-432 1026.71,-414.33 993.17,-442.03 917.5,-396 892.73,-380.93 873.5,-353.46 861.71,-333.01"/>
<polygon fill="grey" stroke="grey" stroke-width="2" points="864.73,-331.23 856.82,-324.17 858.6,-334.62 864.73,-331.23"/>
</g>
<!-- 20&#45;&gt;25 -->
<g id="edge69" class="edge">
<title>20&#45;&gt;25</title>
<path fill="none" stroke="grey" stroke-width="2" d="M1205.09,-431.69C1224.08,-411.62 1258.05,-378.87 1293.5,-360 1313.34,-349.44 1362.66,-335.86 1406.21,-325.09"/>
<polygon fill="grey" stroke="grey" stroke-width="2" points="1407.1,-328.47 1415.98,-322.69 1405.43,-321.67 1407.1,-328.47"/>
</g>
<!-- 20&#45;&gt;26 -->
<g id="edge77" class="edge">
<title>20&#45;&gt;26</title>
<path fill="none" stroke="grey" stroke-width="2" d="M1198.46,-431.88C1208.97,-412.88 1227.73,-381.98 1249.5,-360 1260.73,-348.66 1274.69,-338.22 1287.63,-329.65"/>
<polygon fill="grey" stroke="grey" stroke-width="2" points="1289.85,-332.38 1296.37,-324.03 1286.07,-326.49 1289.85,-332.38"/>
</g>
<!-- 20&#45;&gt;27 -->
<g id="edge85" class="edge">
<title>20&#45;&gt;27</title>
<path fill="none" stroke="grey" stroke-width="2" d="M1122.89,-433.43C1119.72,-432.9 1116.58,-432.42 1113.5,-432 1033.25,-421.12 441.33,-454.66 385.5,-396 374.47,-384.41 377.56,-373.89 385.5,-360 392.96,-346.95 405.02,-336.8 417.92,-329.03"/>
<polygon fill="grey" stroke="grey" stroke-width="2" points="419.89,-331.94 426.94,-324.03 416.5,-325.82 419.89,-331.94"/>
</g>
<!-- 20&#45;&gt;28 -->
<g id="edge93" class="edge">
<title>20&#45;&gt;28</title>
<path fill="none" stroke="grey" stroke-width="2" d="M1122.87,-433.53C1119.71,-432.98 1116.58,-432.46 1113.5,-432 1062.58,-424.36 686.47,-433.8 651.5,-396 633.61,-376.66 653.49,-350.14 673.61,-331.09"/>
<polygon fill="grey" stroke="grey" stroke-width="2" points="676.18,-333.48 681.26,-324.18 671.49,-328.29 676.18,-333.48"/>
</g>
<!-- 20&#45;&gt;29 -->
<g id="edge101" class="edge">
<title>20&#45;&gt;29</title>
<path fill="none" stroke="grey" stroke-width="2" d="M1256.17,-433.8C1259.32,-433.17 1262.44,-432.57 1265.5,-432 1373.28,-412.02 1405.34,-430.15 1509.5,-396 1558.52,-379.93 1610.31,-350.3 1643.21,-329.67"/>
<polygon fill="grey" stroke="grey" stroke-width="2" points="1645.41,-332.42 1651.97,-324.1 1641.66,-326.51 1645.41,-332.42"/>
</g>
<!-- 20&#45;&gt;30 -->
<g id="edge109" class="edge">
<title>20&#45;&gt;30</title>
<path fill="none" stroke="grey" stroke-width="2" d="M1256.11,-433.41C1259.28,-432.89 1262.42,-432.41 1265.5,-432 1308.28,-426.27 2010.83,-426.37 2041.5,-396 2057.35,-380.31 2056.94,-354.08 2053.55,-334.15"/>
<polygon fill="grey" stroke="grey" stroke-width="2" points="2056.93,-333.22 2051.52,-324.12 2050.07,-334.61 2056.93,-333.22"/>
</g>
<!-- 21&#45;&gt;0 -->
<g id="edge10" class="edge">
<title>21&#45;&gt;0</title>
<path fill="none" stroke="grey" stroke-width="2" d="M1604.09,-433.32C1607.26,-432.85 1610.41,-432.41 1613.5,-432 1798.86,-407.55 2445.5,-493.96 2445.5,-307 2445.5,-307 2445.5,-307 2445.5,-161 2445.5,-120.64 2639.72,-162.49 2249.5,-72 2089.75,-34.95 1585.85,-22.96 1414.33,-19.9"/>
<polygon fill="grey" stroke="grey" stroke-width="2" points="1414.3,-16.4 1404.24,-19.72 1414.18,-23.4 1414.3,-16.4"/>
</g>
<!-- 21&#45;&gt;22 -->
<g id="edge48" class="edge">
<title>21&#45;&gt;22</title>
<path fill="none" stroke="grey" stroke-width="2" d="M1477.93,-431.88C1453.94,-422.22 1423.77,-410.09 1398.4,-399.88"/>
<polygon fill="grey" stroke="grey" stroke-width="2" points="1399.51,-396.55 1388.93,-396.07 1396.9,-403.05 1399.51,-396.55"/>
</g>
<!-- 21&#45;&gt;23 -->
<g id="edge55" class="edge">
<title>21&#45;&gt;23</title>
<path fill="none" stroke="grey" stroke-width="2" d="M1604.08,-433.28C1607.26,-432.82 1610.41,-432.39 1613.5,-432 1669.2,-424.94 2079.24,-437.09 2117.5,-396 2128.4,-384.29 2127.76,-372.27 2117.5,-360 2103.14,-342.83 1974.8,-324.8 1892.2,-314.82"/>
<polygon fill="grey" stroke="grey" stroke-width="2" points="1892.46,-311.32 1882.11,-313.61 1891.63,-318.27 1892.46,-311.32"/>
</g>
<!-- 21&#45;&gt;24 -->
<g id="edge63" class="edge">
<title>21&#45;&gt;24</title>
<path fill="none" stroke="grey" stroke-width="2" d="M1436.82,-433.17C1434.02,-432.76 1431.24,-432.37 1428.5,-432 1236.21,-406.34 1174.13,-466.75 993.5,-396 969.33,-386.53 969.25,-374.18 947.5,-360 930.41,-348.86 910.76,-337.97 893.49,-328.99"/>
<polygon fill="grey" stroke="grey" stroke-width="2" points="894.66,-325.66 884.17,-324.21 891.47,-331.89 894.66,-325.66"/>
</g>
<!-- 21&#45;&gt;25 -->
<g id="edge71" class="edge">
<title>21&#45;&gt;25</title>
<path fill="none" stroke="grey" stroke-width="2" d="M1552.08,-431.78C1564.95,-422.93 1578.44,-410.86 1585.5,-396 1592.36,-381.55 1593.78,-373.69 1585.5,-360 1577.39,-346.59 1564.64,-336.4 1550.89,-328.73"/>
<polygon fill="grey" stroke="grey" stroke-width="2" points="1552.25,-325.49 1541.75,-324.04 1549.05,-331.72 1552.25,-325.49"/>
</g>
<!-- 21&#45;&gt;26 -->
<g id="edge79" class="edge">
<title>21&#45;&gt;26</title>
<path fill="none" stroke="grey" stroke-width="2" d="M1436.82,-431.99C1374.06,-418.83 1298.18,-401.89 1293.5,-396 1278.69,-377.33 1291.14,-351.36 1304.78,-332.29"/>
<polygon fill="grey" stroke="grey" stroke-width="2" points="1307.57,-334.4 1310.83,-324.32 1301.99,-330.17 1307.57,-334.4"/>
</g>
<!-- 21&#45;&gt;27 -->
<g id="edge87" class="edge">
<title>21&#45;&gt;27</title>
<path fill="none" stroke="grey" stroke-width="2" d="M1436.84,-433.01C1434.03,-432.64 1431.24,-432.3 1428.5,-432 1375.07,-426.1 498.8,-434.71 461.5,-396 445.74,-379.64 452.37,-353.2 461.05,-333.38"/>
<polygon fill="grey" stroke="grey" stroke-width="2" points="464.26,-334.79 465.39,-324.25 457.94,-331.78 464.26,-334.79"/>
</g>
<!-- 21&#45;&gt;28 -->
<g id="edge95" class="edge">
<title>21&#45;&gt;28</title>
<path fill="none" stroke="grey" stroke-width="2" d="M1436.83,-433.06C1434.03,-432.68 1431.24,-432.32 1428.5,-432 1351.04,-422.89 788.18,-445 727.5,-396 709.45,-381.43 704.15,-354.82 702.94,-334.49"/>
<polygon fill="grey" stroke="grey" stroke-width="2" points="706.43,-334.13 702.64,-324.23 699.44,-334.33 706.43,-334.13"/>
</g>
<!-- 21&#45;&gt;29 -->
<g id="edge103" class="edge">
<title>21&#45;&gt;29</title>
<path fill="none" stroke="grey" stroke-width="2" d="M1604.13,-433.59C1607.29,-433.04 1610.42,-432.51 1613.5,-432 1666.26,-423.19 1816.62,-436.55 1851.5,-396 1861.93,-383.87 1861.02,-372.86 1851.5,-360 1845.25,-351.57 1798.57,-337.6 1755.13,-326.12"/>
<polygon fill="grey" stroke="grey" stroke-width="2" points="1755.91,-322.71 1745.35,-323.56 1754.14,-329.48 1755.91,-322.71"/>
</g>
<!-- 21&#45;&gt;30 -->
<g id="edge111" class="edge">
<title>21&#45;&gt;30</title>
<path fill="none" stroke="grey" stroke-width="2" d="M1604.08,-433.21C1607.25,-432.77 1610.4,-432.37 1613.5,-432 1685.99,-423.42 2219.32,-449.01 2269.5,-396 2319.29,-343.4 2198.77,-321.2 2116.18,-312.37"/>
<polygon fill="grey" stroke="grey" stroke-width="2" points="2116.37,-308.87 2106.06,-311.33 2115.65,-315.83 2116.37,-308.87"/>
</g>
<!-- 22&#45;&gt;0 -->
<g id="edge11" class="edge">
<title>22&#45;&gt;0</title>
<path fill="none" stroke="grey" stroke-width="2" d="M1391.13,-361.55C1392.94,-361.01 1394.73,-360.49 1396.5,-360 1469.24,-339.82 1511.55,-379.71 1562.5,-324 1606.03,-276.4 1576.49,-244.37 1580.5,-180 1583.49,-132.04 1606.5,-108.71 1575.5,-72 1554.96,-47.68 1472.04,-32.87 1414.35,-25.3"/>
<polygon fill="grey" stroke="grey" stroke-width="2" points="1414.61,-21.8 1404.25,-24.01 1413.73,-28.75 1414.61,-21.8"/>
</g>
<!-- 22&#45;&gt;23 -->
<g id="edge56" class="edge">
<title>22&#45;&gt;23</title>
<path fill="none" stroke="grey" stroke-width="2" d="M1391.14,-372.91C1464.71,-365.8 1616.12,-349.59 1753.05,-324.17"/>
<polygon fill="grey" stroke="grey" stroke-width="2" points="1753.7,-327.61 1762.88,-322.32 1752.41,-320.73 1753.7,-327.61"/>
</g>
<!-- 22&#45;&gt;24 -->
<g id="edge64" class="edge">
<title>22&#45;&gt;24</title>
<path fill="none" stroke="grey" stroke-width="2" d="M1301.8,-373.04C1225.69,-365.96 1065.97,-349.57 921.2,-324.01"/>
<polygon fill="grey" stroke="grey" stroke-width="2" points="921.7,-320.55 911.25,-322.24 920.47,-327.44 921.7,-320.55"/>
</g>
<!-- 22&#45;&gt;25 -->
<g id="edge72" class="edge">
<title>22&#45;&gt;25</title>
<path fill="none" stroke="grey" stroke-width="2" d="M1380.26,-359.88C1398.72,-350.51 1421.78,-338.81 1441.52,-328.8"/>
<polygon fill="grey" stroke="grey" stroke-width="2" points="1443.28,-331.83 1450.61,-324.19 1440.11,-325.59 1443.28,-331.83"/>
</g>
<!-- 22&#45;&gt;26 -->
<g id="edge80" class="edge">
<title>22&#45;&gt;26</title>
<path fill="none" stroke="grey" stroke-width="2" d="M1341.56,-359.7C1339.33,-351.9 1336.65,-342.51 1334.17,-333.83"/>
<polygon fill="grey" stroke="grey" stroke-width="2" points="1337.5,-332.76 1331.39,-324.1 1330.77,-334.68 1337.5,-332.76"/>
</g>
<!-- 22&#45;&gt;27 -->
<g id="edge88" class="edge">
<title>22&#45;&gt;27</title>
<path fill="none" stroke="grey" stroke-width="2" d="M1301.63,-374.23C1188.78,-367.15 884.02,-347.28 630.5,-324 604.08,-321.57 575.18,-318.51 549.56,-315.66"/>
<polygon fill="grey" stroke="grey" stroke-width="2" points="549.88,-312.18 539.55,-314.54 549.1,-319.13 549.88,-312.18"/>
</g>
<!-- 22&#45;&gt;28 -->
<g id="edge96" class="edge">
<title>22&#45;&gt;28</title>
<path fill="none" stroke="grey" stroke-width="2" d="M1301.98,-374.87C1205.76,-369.83 971.45,-355.17 777.5,-324 777.4,-323.98 777.3,-323.97 777.19,-323.95"/>
<polygon fill="grey" stroke="grey" stroke-width="2" points="778.03,-320.54 767.57,-322.27 776.82,-327.44 778.03,-320.54"/>
</g>
<!-- 22&#45;&gt;29 -->
<g id="edge104" class="edge">
<title>22&#45;&gt;29</title>
<path fill="none" stroke="grey" stroke-width="2" d="M1391.14,-367.56C1444.6,-356.25 1535.05,-337.13 1600,-323.39"/>
<polygon fill="grey" stroke="grey" stroke-width="2" points="1600.74,-326.81 1609.8,-321.32 1599.29,-319.96 1600.74,-326.81"/>
</g>
<!-- 22&#45;&gt;30 -->
<g id="edge112" class="edge">
<title>22&#45;&gt;30</title>
<path fill="none" stroke="grey" stroke-width="2" d="M1391.02,-372.86C1484.03,-364.16 1705.69,-343.22 1891.5,-324 1919.44,-321.11 1950.19,-317.77 1976.88,-314.82"/>
<polygon fill="grey" stroke="grey" stroke-width="2" points="1977.35,-318.29 1986.9,-313.71 1976.57,-311.33 1977.35,-318.29"/>
</g>
<!-- 23&#45;&gt;0 -->
<g id="edge12" class="edge">
<title>23&#45;&gt;0</title>
<path fill="none" stroke="grey" stroke-width="2" d="M1816.78,-287.73C1801.2,-243.6 1753.52,-126.39 1670.5,-72 1629.29,-45 1493.24,-29.9 1414.4,-23.22"/>
<polygon fill="grey" stroke="grey" stroke-width="2" points="1414.39,-19.71 1404.14,-22.38 1413.81,-26.69 1414.39,-19.71"/>
</g>
<!-- 31 -->
<g id="node32" class="node">
<title>31</title>
<path fill="none" stroke="#78d856" stroke-width="2" d="M1417.5,-180C1417.5,-180 1253.5,-180 1253.5,-180 1247.5,-180 1241.5,-174 1241.5,-168 1241.5,-168 1241.5,-156 1241.5,-156 1241.5,-150 1247.5,-144 1253.5,-144 1253.5,-144 1417.5,-144 1417.5,-144 1423.5,-144 1429.5,-150 1429.5,-156 1429.5,-156 1429.5,-168 1429.5,-168 1429.5,-174 1423.5,-180 1417.5,-180"/>
<text text-anchor="middle" x="1335.5" y="-159.5" font-family="sans" font-size="10.00">collapse_bcs_lib40_41_SARSr_DMS</text>
</g>
<!-- 23&#45;&gt;31 -->
<g id="edge113" class="edge">
<title>23&#45;&gt;31</title>
<path fill="none" stroke="grey" stroke-width="2" d="M1765.2,-287.97C1704.49,-269.97 1605.79,-240.79 1520.5,-216 1482.54,-204.97 1440.15,-192.81 1405.53,-182.93"/>
<polygon fill="grey" stroke="grey" stroke-width="2" points="1406.1,-179.45 1395.52,-180.07 1404.18,-186.18 1406.1,-179.45"/>
</g>
<!-- 32 -->
<g id="node33" class="node">
<title>32</title>
<path fill="none" stroke="#d86656" stroke-width="2" d="M1117.5,-252C1117.5,-252 975.5,-252 975.5,-252 969.5,-252 963.5,-246 963.5,-240 963.5,-240 963.5,-228 963.5,-228 963.5,-222 969.5,-216 975.5,-216 975.5,-216 1117.5,-216 1117.5,-216 1123.5,-216 1129.5,-222 1129.5,-228 1129.5,-228 1129.5,-240 1129.5,-240 1129.5,-246 1123.5,-252 1117.5,-252"/>
<text text-anchor="middle" x="1046.5" y="-231.5" font-family="sans" font-size="10.00">collapse_bcs_lib46_SARSr_wts</text>
</g>
<!-- 23&#45;&gt;32 -->
<g id="edge122" class="edge">
<title>23&#45;&gt;32</title>
<path fill="none" stroke="grey" stroke-width="2" d="M1762.91,-289.49C1760.08,-288.95 1757.26,-288.45 1754.5,-288 1536.13,-252.79 1276.02,-240.9 1139.98,-236.94"/>
<polygon fill="grey" stroke="grey" stroke-width="2" points="1139.7,-233.43 1129.6,-236.64 1139.5,-240.43 1139.7,-233.43"/>
</g>
<!-- 24&#45;&gt;0 -->
<g id="edge13" class="edge">
<title>24&#45;&gt;0</title>
<path fill="none" stroke="grey" stroke-width="2" d="M852.95,-287.97C865.42,-243.9 905.21,-125.83 985.5,-72 1035.59,-38.42 1207.64,-25.68 1298.78,-21.21"/>
<polygon fill="grey" stroke="grey" stroke-width="2" points="1299.12,-24.7 1308.95,-20.73 1298.79,-17.71 1299.12,-24.7"/>
</g>
<!-- 24&#45;&gt;31 -->
<g id="edge114" class="edge">
<title>24&#45;&gt;31</title>
<path fill="none" stroke="grey" stroke-width="2" d="M868.86,-287.87C899.56,-262.06 954.18,-216.14 954.5,-216 1065.57,-167.25 1107.05,-196.51 1231.22,-180.09"/>
<polygon fill="grey" stroke="grey" stroke-width="2" points="1232.08,-183.5 1241.5,-178.65 1231.11,-176.57 1232.08,-183.5"/>
</g>
<!-- 24&#45;&gt;32 -->
<g id="edge123" class="edge">
<title>24&#45;&gt;32</title>
<path fill="none" stroke="grey" stroke-width="2" d="M896.68,-287.97C924.35,-278.19 959.28,-265.84 988.45,-255.52"/>
<polygon fill="grey" stroke="grey" stroke-width="2" points="989.84,-258.74 998.1,-252.11 987.51,-252.14 989.84,-258.74"/>
</g>
<!-- 25&#45;&gt;0 -->
<g id="edge14" class="edge">
<title>25&#45;&gt;0</title>
<path fill="none" stroke="grey" stroke-width="2" d="M1498.97,-287.92C1532.1,-246.67 1606.71,-140.02 1554.5,-72 1537.44,-49.77 1466.42,-34.83 1414.3,-26.63"/>
<polygon fill="grey" stroke="grey" stroke-width="2" points="1414.57,-23.13 1404.15,-25.08 1413.51,-30.05 1414.57,-23.13"/>
</g>
<!-- 25&#45;&gt;31 -->
<g id="edge115" class="edge">
<title>25&#45;&gt;31</title>
<path fill="none" stroke="grey" stroke-width="2" d="M1466.53,-287.87C1440.24,-262.82 1391.17,-216.05 1361.11,-187.41"/>
<polygon fill="grey" stroke="grey" stroke-width="2" points="1363.19,-184.55 1353.54,-180.19 1358.36,-189.62 1363.19,-184.55"/>
</g>
<!-- 25&#45;&gt;32 -->
<g id="edge124" class="edge">
<title>25&#45;&gt;32</title>
<path fill="none" stroke="grey" stroke-width="2" d="M1415.7,-289.56C1412.94,-289.02 1410.19,-288.49 1407.5,-288 1316.9,-271.37 1212.75,-256.53 1139.68,-246.82"/>
<polygon fill="grey" stroke="grey" stroke-width="2" points="1139.95,-243.32 1129.58,-245.48 1139.03,-250.26 1139.95,-243.32"/>
</g>
<!-- 26&#45;&gt;0 -->
<g id="edge15" class="edge">
<title>26&#45;&gt;0</title>
<path fill="none" stroke="grey" stroke-width="2" d="M1292.6,-287.86C1255.26,-269.24 1193.24,-239.07 1138.5,-216 1096.12,-198.15 1067.76,-217.75 1041.5,-180 1032.36,-166.86 1038.74,-159.76 1041.5,-144 1047.37,-110.49 1041.54,-93.99 1067.5,-72 1101.65,-43.07 1224.8,-28.9 1298.87,-22.84"/>
<polygon fill="grey" stroke="grey" stroke-width="2" points="1299.29,-26.32 1308.98,-22.04 1298.74,-19.34 1299.29,-26.32"/>
</g>
<!-- 26&#45;&gt;31 -->
<g id="edge116" class="edge">
<title>26&#45;&gt;31</title>
<path fill="none" stroke="grey" stroke-width="2" d="M1327.59,-287.87C1329.12,-263.67 1331.94,-219.21 1333.76,-190.39"/>
<polygon fill="grey" stroke="grey" stroke-width="2" points="1337.27,-190.39 1334.41,-180.19 1330.28,-189.95 1337.27,-190.39"/>
</g>
<!-- 26&#45;&gt;32 -->
<g id="edge125" class="edge">
<title>26&#45;&gt;32</title>
<path fill="none" stroke="grey" stroke-width="2" d="M1258.36,-287.97C1218.05,-277.89 1166.83,-265.08 1124.85,-254.59"/>
<polygon fill="grey" stroke="grey" stroke-width="2" points="1125.49,-251.14 1114.94,-252.11 1123.8,-257.93 1125.49,-251.14"/>
</g>
<!-- 27&#45;&gt;0 -->
<g id="edge16" class="edge">
<title>27&#45;&gt;0</title>
<path fill="none" stroke="grey" stroke-width="2" d="M497.7,-287.76C556.45,-243.2 722.38,-124.04 881.5,-72 957.71,-47.08 1189.57,-29.58 1298.64,-22.5"/>
<polygon fill="grey" stroke="grey" stroke-width="2" points="1299.04,-25.98 1308.8,-21.85 1298.59,-18.99 1299.04,-25.98"/>
</g>
<!-- 27&#45;&gt;31 -->
<g id="edge117" class="edge">
<title>27&#45;&gt;31</title>
<path fill="none" stroke="grey" stroke-width="2" d="M539.84,-288.11C618.15,-268.13 754.67,-235.17 873.5,-216 1028.56,-190.98 1071.77,-200.65 1231.08,-180.13"/>
<polygon fill="grey" stroke="grey" stroke-width="2" points="1231.77,-183.57 1241.24,-178.8 1230.87,-176.63 1231.77,-183.57"/>
</g>
<!-- 27&#45;&gt;32 -->
<g id="edge126" class="edge">
<title>27&#45;&gt;32</title>
<path fill="none" stroke="grey" stroke-width="2" d="M539.61,-297.14C640.54,-284.77 836.92,-260.69 953.4,-246.41"/>
<polygon fill="grey" stroke="grey" stroke-width="2" points="953.88,-249.88 963.38,-245.19 953.02,-242.93 953.88,-249.88"/>
</g>
<!-- 28&#45;&gt;0 -->
<g id="edge17" class="edge">
<title>28&#45;&gt;0</title>
<path fill="none" stroke="grey" stroke-width="2" d="M714.92,-287.75C745.51,-243.15 834.29,-123.91 941.5,-72 1003.3,-42.08 1200.16,-27.45 1298.89,-21.84"/>
<polygon fill="grey" stroke="grey" stroke-width="2" points="1299.2,-25.33 1308.99,-21.28 1298.81,-18.34 1299.2,-25.33"/>
</g>
<!-- 28&#45;&gt;31 -->
<g id="edge118" class="edge">
<title>28&#45;&gt;31</title>
<path fill="none" stroke="grey" stroke-width="2" d="M767.71,-288.23C807.83,-277.14 855.23,-262.71 873.5,-252 893.57,-240.23 890.4,-225.8 911.5,-216 1038.77,-156.86 1088.07,-197.76 1231.21,-180.07"/>
<polygon fill="grey" stroke="grey" stroke-width="2" points="1231.77,-183.53 1241.23,-178.76 1230.86,-176.59 1231.77,-183.53"/>
</g>
<!-- 28&#45;&gt;32 -->
<g id="edge127" class="edge">
<title>28&#45;&gt;32</title>
<path fill="none" stroke="grey" stroke-width="2" d="M767.65,-290.13C770.98,-289.4 774.28,-288.69 777.5,-288 835.88,-275.55 901.63,-262.57 953.5,-252.58"/>
<polygon fill="grey" stroke="grey" stroke-width="2" points="954.19,-256.01 963.35,-250.69 952.87,-249.14 954.19,-256.01"/>
</g>
<!-- 29&#45;&gt;0 -->
<g id="edge18" class="edge">
<title>29&#45;&gt;0</title>
<path fill="none" stroke="grey" stroke-width="2" d="M1681.14,-287.83C1689.14,-244.97 1703.2,-132.35 1645.5,-72 1614.48,-39.56 1489.55,-26.67 1414.47,-21.79"/>
<polygon fill="grey" stroke="grey" stroke-width="2" points="1414.43,-18.28 1404.23,-21.15 1413.99,-25.27 1414.43,-18.28"/>
</g>
<!-- 29&#45;&gt;31 -->
<g id="edge119" class="edge">
<title>29&#45;&gt;31</title>
<path fill="none" stroke="grey" stroke-width="2" d="M1636.25,-287.87C1573.51,-261.82 1454.25,-212.3 1386.28,-184.08"/>
<polygon fill="grey" stroke="grey" stroke-width="2" points="1387.21,-180.68 1376.63,-180.08 1384.53,-187.15 1387.21,-180.68"/>
</g>
<!-- 29&#45;&gt;32 -->
<g id="edge128" class="edge">
<title>29&#45;&gt;32</title>
<path fill="none" stroke="grey" stroke-width="2" d="M1609.77,-294.48C1594.25,-292.21 1577.82,-289.92 1562.5,-288 1415.06,-269.54 1243.31,-252.86 1139.85,-243.33"/>
<polygon fill="grey" stroke="grey" stroke-width="2" points="1140.02,-239.83 1129.74,-242.4 1139.38,-246.8 1140.02,-239.83"/>
</g>
<!-- 30&#45;&gt;0 -->
<g id="edge19" class="edge">
<title>30&#45;&gt;0</title>
<path fill="none" stroke="grey" stroke-width="2" d="M2027.87,-287.68C1979.09,-243.45 1841.9,-126.02 1704.5,-72 1607.33,-33.8 1484.86,-22.98 1414.14,-20.01"/>
<polygon fill="grey" stroke="grey" stroke-width="2" points="1414.22,-16.51 1404.09,-19.63 1413.95,-23.51 1414.22,-16.51"/>
</g>
<!-- 30&#45;&gt;31 -->
<g id="edge120" class="edge">
<title>30&#45;&gt;31</title>
<path fill="none" stroke="grey" stroke-width="2" d="M1986.8,-293.08C1863.53,-268.46 1579.95,-211.82 1430.94,-182.06"/>
<polygon fill="grey" stroke="grey" stroke-width="2" points="1431.38,-178.58 1420.89,-180.05 1430.01,-185.44 1431.38,-178.58"/>
</g>
<!-- 31&#45;&gt;0 -->
<g id="edge20" class="edge">
<title>31&#45;&gt;0</title>
<path fill="none" stroke="grey" stroke-width="2" d="M1429.54,-147.45C1475.07,-138.77 1522.82,-125.76 1536.5,-108 1572.96,-60.69 1479.99,-36.84 1414.5,-26.24"/>
<polygon fill="grey" stroke="grey" stroke-width="2" points="1414.67,-22.72 1404.26,-24.65 1413.6,-29.64 1414.67,-22.72"/>
</g>
<!-- 31&#45;&gt;35 -->
<g id="edge131" class="edge">
<title>31&#45;&gt;35</title>
<path fill="none" stroke="grey" stroke-width="2" d="M1286.1,-143.97C1256.24,-133.67 1218.12,-120.52 1187.32,-109.91"/>
<polygon fill="grey" stroke="grey" stroke-width="2" points="1188.2,-106.5 1177.6,-106.55 1185.92,-113.12 1188.2,-106.5"/>
</g>
<!-- 36 -->
<g id="node37" class="node">
<title>36</title>
<path fill="none" stroke="#56a2d8" stroke-width="2" d="M1331.5,-108C1331.5,-108 1207.5,-108 1207.5,-108 1201.5,-108 1195.5,-102 1195.5,-96 1195.5,-96 1195.5,-84 1195.5,-84 1195.5,-78 1201.5,-72 1207.5,-72 1207.5,-72 1331.5,-72 1331.5,-72 1337.5,-72 1343.5,-78 1343.5,-84 1343.5,-84 1343.5,-96 1343.5,-96 1343.5,-102 1337.5,-108 1331.5,-108"/>
<text text-anchor="middle" x="1269.5" y="-87.5" font-family="sans" font-size="10.00">interactive_heatmap_delta</text>
</g>
<!-- 31&#45;&gt;36 -->
<g id="edge133" class="edge">
<title>31&#45;&gt;36</title>
<path fill="none" stroke="grey" stroke-width="2" d="M1319.19,-143.7C1311.19,-135.22 1301.43,-124.86 1292.68,-115.58"/>
<polygon fill="grey" stroke="grey" stroke-width="2" points="1295.03,-112.98 1285.63,-108.1 1289.94,-117.78 1295.03,-112.98"/>
</g>
<!-- 37 -->
<g id="node38" class="node">
<title>37</title>
<path fill="none" stroke="#d88d56" stroke-width="2" d="M1515,-108C1515,-108 1374,-108 1374,-108 1368,-108 1362,-102 1362,-96 1362,-96 1362,-84 1362,-84 1362,-78 1368,-72 1374,-72 1374,-72 1515,-72 1515,-72 1521,-72 1527,-78 1527,-84 1527,-84 1527,-96 1527,-96 1527,-102 1521,-108 1515,-108"/>
<text text-anchor="middle" x="1444.5" y="-87.5" font-family="sans" font-size="10.00">interactive_heatmap_absolute</text>
</g>
<!-- 31&#45;&gt;37 -->
<g id="edge134" class="edge">
<title>31&#45;&gt;37</title>
<path fill="none" stroke="grey" stroke-width="2" d="M1362.16,-143.88C1376.28,-134.81 1393.81,-123.55 1409.06,-113.76"/>
<polygon fill="grey" stroke="grey" stroke-width="2" points="1411.21,-116.54 1417.73,-108.19 1407.43,-110.65 1411.21,-116.54"/>
</g>
<!-- 32&#45;&gt;0 -->
<g id="edge21" class="edge">
<title>32&#45;&gt;0</title>
<path fill="none" stroke="grey" stroke-width="2" d="M1029.61,-215.99C1021.21,-206.31 1011.92,-193.46 1007.5,-180 992.53,-134.39 976.21,-108.4 1007.5,-72 1044.34,-29.14 1209.27,-20.53 1298.58,-19.06"/>
<polygon fill="grey" stroke="grey" stroke-width="2" points="1298.87,-22.56 1308.82,-18.92 1298.77,-15.56 1298.87,-22.56"/>
</g>
<!-- 32&#45;&gt;31 -->
<g id="edge121" class="edge">
<title>32&#45;&gt;31</title>
<path fill="none" stroke="grey" stroke-width="2" d="M1116.83,-215.97C1158.6,-205.85 1211.72,-192.98 1255.15,-182.46"/>
<polygon fill="grey" stroke="grey" stroke-width="2" points="1256.21,-185.81 1265.11,-180.05 1254.56,-179 1256.21,-185.81"/>
</g>
<!-- 33 -->
<g id="node34" class="node">
<title>33</title>
<path fill="none" stroke="#56d86b" stroke-width="2" d="M1224.5,-324C1224.5,-324 1102.5,-324 1102.5,-324 1096.5,-324 1090.5,-318 1090.5,-312 1090.5,-312 1090.5,-300 1090.5,-300 1090.5,-294 1096.5,-288 1102.5,-288 1102.5,-288 1224.5,-288 1224.5,-288 1230.5,-288 1236.5,-294 1236.5,-300 1236.5,-300 1236.5,-312 1236.5,-312 1236.5,-318 1230.5,-324 1224.5,-324"/>
<text text-anchor="middle" x="1163.5" y="-303.5" font-family="sans" font-size="10.00">get_SARSr_mut_bind_expr</text>
</g>
<!-- 33&#45;&gt;32 -->
<g id="edge129" class="edge">
<title>33&#45;&gt;32</title>
<path fill="none" stroke="grey" stroke-width="2" d="M1134.88,-287.88C1119.58,-278.72 1100.56,-267.34 1084.08,-257.48"/>
<polygon fill="grey" stroke="grey" stroke-width="2" points="1085.61,-254.32 1075.23,-252.19 1082.02,-260.33 1085.61,-254.32"/>
</g>
<!-- 34 -->
<g id="node35" class="node">
<title>34</title>
<path fill="none" stroke="#567bd8" stroke-width="2" d="M1060,-324C1060,-324 941,-324 941,-324 935,-324 929,-318 929,-312 929,-312 929,-300 929,-300 929,-294 935,-288 941,-288 941,-288 1060,-288 1060,-288 1066,-288 1072,-294 1072,-300 1072,-300 1072,-312 1072,-312 1072,-318 1066,-324 1060,-324"/>
<text text-anchor="middle" x="1000.5" y="-303.5" font-family="sans" font-size="10.00">get_SARSr_wts_bind_expr</text>
</g>
<!-- 34&#45;&gt;32 -->
<g id="edge130" class="edge">
<title>34&#45;&gt;32</title>
<path fill="none" stroke="grey" stroke-width="2" d="M1011.87,-287.7C1017.22,-279.56 1023.7,-269.69 1029.61,-260.7"/>
<polygon fill="grey" stroke="grey" stroke-width="2" points="1032.69,-262.38 1035.26,-252.1 1026.84,-258.54 1032.69,-262.38"/>
</g>
<!-- 35&#45;&gt;0 -->
<g id="edge22" class="edge">
<title>35&#45;&gt;0</title>
<path fill="none" stroke="grey" stroke-width="2" d="M1177.58,-74.8C1180.6,-73.85 1183.59,-72.91 1186.5,-72 1223.93,-60.27 1266.01,-47.15 1298.95,-36.9"/>
<polygon fill="grey" stroke="grey" stroke-width="2" points="1300.35,-40.13 1308.86,-33.81 1298.27,-33.44 1300.35,-40.13"/>
</g>
<!-- 36&#45;&gt;0 -->
<g id="edge23" class="edge">
<title>36&#45;&gt;0</title>
<path fill="none" stroke="grey" stroke-width="2" d="M1291.01,-71.7C1301.96,-62.88 1315.45,-52.03 1327.32,-42.47"/>
<polygon fill="grey" stroke="grey" stroke-width="2" points="1329.64,-45.1 1335.24,-36.1 1325.26,-39.65 1329.64,-45.1"/>
</g>
<!-- 37&#45;&gt;0 -->
<g id="edge24" class="edge">
<title>37&#45;&gt;0</title>
<path fill="none" stroke="grey" stroke-width="2" d="M1422.75,-71.7C1411.66,-62.88 1398.03,-52.03 1386.01,-42.47"/>
<polygon fill="grey" stroke="grey" stroke-width="2" points="1388.01,-39.59 1378,-36.1 1383.65,-45.07 1388.01,-39.59"/>
</g>
</g>
</svg>
